# xmcd
#
# Track frame offsets:
#  150
#  10100
#  22190
#  37047
#  52585
#  63802
#  77050
#  90237
#  101412
#  114562
#  128365
#  142970
#
# Disc length: 2078 seconds
#
# Revision: 6
# Processed by: cddbd v1.5.1PL2 Copyright (c) Steve Scherf et al.
# Submitted via: Collectorz.com_Music_Collector 6.10
#
DISCID=83081c0c
DTITLE=Mandarim Records - Original Music Collection [CD1)
DYEAR=1996
DGENRE=Other
TTITLE0=Glen Campbell - Gentle on my mind
TTITLE1=The Drifters - Up on the roof
TTITLE2=Roy Clark - Yesterday when I was young
TTITLE3=The Drifters - My girl
TTITLE4=Pat Boone - Moody river
TTITLE5=Sarah Vaughan - Love me or leave me
TTITLE6=Billie Holiday - My man
TTITLE7=Pat Boone - April love
TTITLE8=Al Martino - I've got you under my skin
TTITLE9=Roy Clark - Unchained melody
TTITLE10=The Platters - My prayer
TTITLE11=Percy Sledge - When a man loves a woman
EXTD=
EXTT0=
EXTT1=
EXTT2=
EXTT3=
EXTT4=
EXTT5=
EXTT6=
EXTT7=
EXTT8=
EXTT9=
EXTT10=
EXTT11=
PLAYORDER=
